<?xml version="1.0" standalone="no"?><!DOCTYPE svg PUBLIC "-//W3C//DTD SVG 1.1//EN" "http://www.w3.org/Graphics/SVG/1.1/DTD/svg11.dtd"><svg t="1617864232177" class="icon" viewBox="0 0 1024 1024" version="1.1" xmlns="http://www.w3.org/2000/svg" p-id="3560" xmlns:xlink="http://www.w3.org/1999/xlink" width="200" height="200"><defs><style type="text/css"></style></defs><path d="M256 588.8c0 12.8 12.8 25.6 25.6 25.6h307.2c12.8 0 25.6-12.8 25.6-25.6s-12.8-25.6-25.6-25.6h-307.2c-12.8 0-25.6 12.8-25.6 25.6zM588.8 716.8h-307.2c-12.8 0-25.6 10.24-25.6 25.6 0 12.8 12.8 25.6 25.6 25.6h307.2c12.8 0 25.6-12.8 25.6-25.6 0-15.36-12.8-25.6-25.6-25.6zM281.6 460.8h153.6c12.8 0 25.6-12.8 25.6-25.6s-12.8-25.6-25.6-25.6h-153.6c-12.8 0-25.6 12.8-25.6 25.6s12.8 25.6 25.6 25.6z" p-id="3561" fill="#1CB885"></path><path d="M896 51.2h-640c-12.8 0-25.6 12.8-25.6 25.6v128h-102.4c-12.8 0-25.6 12.8-25.6 25.6v716.8c0 12.8 12.8 25.6 25.6 25.6h614.4c15.36 0 25.6-10.24 25.6-25.6v-76.8h128c12.8 0 25.6-12.8 25.6-25.6v-768c0-12.8-12.8-25.6-25.6-25.6z m-179.2 870.4h-563.2v-665.6h563.2v665.6z m25.6-716.8h-460.8v-102.4h588.8v716.8h-102.4v-588.8c0-12.8-12.8-25.6-25.6-25.6z" p-id="3562" fill="#1CB885"></path></svg>